<svg width="80" height="81" viewBox="0 0 80 81" fill="none" xmlns="http://www.w3.org/2000/svg">
<rect x="1.54688" y="1.4043" width="77.438" height="78.3667" rx="9" stroke="white" stroke-width="2"/>
<circle cx="26.3633" cy="28.1787" r="5.5" stroke="white" stroke-width="2"/>
<circle cx="43.0195" cy="23.3701" r="7" stroke="white" stroke-width="2"/>
<rect x="12.5078" y="34.3291" width="46.9233" height="30.4785" rx="4" stroke="white" stroke-width="2"/>
<path d="M59.457 42.8258C59.457 42.6334 59.5674 42.458 59.741 42.3749L70.6886 37.1292C71.0205 36.9702 71.4047 37.2121 71.4047 37.5801V59.2273C71.4047 59.5725 71.0632 59.8139 70.7378 59.6986L59.7901 55.8208C59.5905 55.7501 59.457 55.5613 59.457 55.3495V42.8258Z" stroke="white" stroke-width="2"/>
<path d="M42.4062 48.3588C43.0729 48.7437 43.0729 49.706 42.4063 50.0909L33.4996 55.2331C32.833 55.618 31.9996 55.1369 31.9996 54.3671L31.9996 44.0826C31.9996 43.3128 32.833 42.8317 33.4996 43.2166L42.4062 48.3588Z" stroke="white" stroke-width="2"/>
</svg>
